<svg width="506" height="442" viewBox="0 0 506 442" fill="none" xmlns="http://www.w3.org/2000/svg">
<path d="M165.842 437.331C203.518 442.719 243.077 439.393 281.813 428.47C321.391 417.199 358.588 398.822 391.586 374.235C424.149 350.013 451.337 320.743 470.957 288.516C489.923 257.362 501.386 224.145 503.908 190.816C506.298 159.238 500.385 130.891 488.28 106.749C476.807 84.1207 459.903 64.6907 439.08 50.1976C419.348 36.2596 396.055 26.1726 370.427 20.3806C345.886 14.8346 318.958 13.1736 290.467 15.8706C263.076 18.545 236.156 24.817 210.404 34.5246C185.291 43.9538 161.376 56.3054 139.15 71.3246C117.008 86.2199 96.7708 103.767 78.8889 123.576C60.6942 143.657 45.5674 166.318 33.9989 190.823C22.0989 216.391 15.5049 241.948 14.0469 266.516C12.5119 292.369 16.6469 317.286 26.3699 339.876C37.0407 364.529 54.0576 385.912 75.6859 401.845C99.4569 419.57 129.744 432.169 165.842 437.331Z" fill="#C1C1C1"/>
<path d="M16.7709 241.97L16.7379 242.14C12.6121 262.763 12.2151 283.959 15.5659 304.723C18.9878 325.552 26.7148 345.439 38.2539 363.115C51.0251 382.428 67.9067 398.68 87.6909 410.709C109.369 424.078 135.508 433.595 165.668 437.919C171.818 438.801 178.026 439.452 184.292 439.873C190.594 440.297 196.938 440.492 203.325 440.457C209.744 440.423 216.19 440.161 222.661 439.672C229.161 439.181 235.67 438.465 242.187 437.525L242.413 437.492L242.671 437.454L242.941 437.414L243.205 437.375L243.637 437.311L243.767 437.291L243.802 437.286H243.814L243.802 436.681L243.814 437.286L244.406 437.199L244.393 436.592L239.207 190.712L239.199 190.323L238.729 190.431L17.2709 241.394L16.8649 241.487L16.7909 241.867L17.1969 241.774L16.7909 241.867V241.874V241.896L16.7709 241.97Z" fill="#C1C1C1"/>
<path d="M165.494 438.507C158 437.43 150.709 436.026 143.635 434.305C136.627 432.6 129.837 430.586 123.278 428.271C116.785 425.979 110.521 423.394 104.499 420.527C98.5403 417.69 92.8216 414.578 87.3523 411.202C84.7318 409.583 82.1674 407.902 79.6632 406.162C77.1728 404.431 74.7421 402.642 72.3751 400.799C70.0214 398.966 67.7309 397.079 65.5073 395.142C63.2964 393.217 61.1518 391.242 59.0771 389.222C57.0386 387.237 55.06 385.201 53.1442 383.118C51.2394 381.047 49.3969 378.93 47.6193 376.772C45.852 374.625 44.149 372.438 42.5128 370.214C40.8862 368.003 39.3258 365.755 37.834 363.475C36.3589 361.221 34.9457 358.927 33.5959 356.598C32.2541 354.282 30.9751 351.932 29.7606 349.552C28.5531 347.185 27.4094 344.79 26.331 342.369C25.2588 339.962 24.2512 337.53 23.3097 335.077C22.3724 332.636 21.4971 330.165 20.6847 327.67C19.8769 325.189 19.1313 322.684 18.4483 320.16C17.7693 317.65 17.1522 315.12 16.5978 312.576C16.0466 310.046 15.5572 307.501 15.1304 304.946C14.7026 302.385 14.3361 299.804 14.0306 297.208C13.7268 294.626 13.4834 292.029 13.3001 289.421C13.1179 286.828 12.9952 284.224 12.9317 281.614C12.8686 279.018 12.8642 276.416 12.9183 273.812C12.9727 271.194 13.0865 268.564 13.2586 265.926C13.4299 263.302 13.6589 260.67 13.9448 258.035C14.2292 255.414 14.5698 252.789 14.9659 250.165C15.3599 247.555 15.8088 244.945 16.3118 242.34L16.3115 242.34L16.3714 242.033L16.3797 241.99L16.3814 241.981L16.3834 241.971L16.385 241.962L16.3869 241.953L16.4596 241.58L16.5335 241.201L16.939 241.108L17.3444 241.014L238.72 190.042L239.19 189.933L239.661 189.825L239.67 190.213L239.679 190.602L244.983 436.501L244.996 437.108L245.009 437.717L244.417 437.804L244.274 437.825L244.239 437.971L243.743 437.904L243.651 437.918L243.215 437.983C243.13 437.995 243.041 438.008 242.951 438.022C242.86 438.035 242.769 438.048 242.68 438.061C242.591 438.074 242.503 438.087 242.422 438.099C242.34 438.111 242.263 438.122 242.195 438.132C235.549 439.089 228.93 439.81 222.353 440.298C215.81 440.783 209.314 441.037 202.878 441.061C196.479 441.084 190.145 440.88 183.888 440.451C177.671 440.024 171.536 439.375 165.494 438.507ZM17.137 242.084C12.9163 263.985 12.6583 285.294 16.1868 305.383C19.879 326.404 27.7241 346.127 39.5226 363.708C51.8813 382.125 68.5528 398.155 89.2031 410.731C110.765 423.862 136.517 433.139 165.841 437.332C171.856 438.193 177.963 438.834 184.151 439.255C190.379 439.678 196.683 439.878 203.052 439.851C209.457 439.824 215.922 439.569 222.434 439.083C228.978 438.594 235.565 437.873 242.178 436.919C242.246 436.909 242.322 436.898 242.403 436.886C242.485 436.874 242.572 436.861 242.66 436.848C242.749 436.835 242.84 436.822 242.93 436.808C243.02 436.795 243.109 436.782 243.193 436.769L243.626 436.705L243.753 436.686L243.792 436.68L243.799 436.679L243.803 436.678V436.678L243.803 436.678L238.735 190.821L238.734 190.821L17.1972 241.773H17.1971L17.1971 241.774H17.1971L17.197 241.774L17.1969 241.775L17.1964 241.777L17.1954 241.782L17.1911 241.805L17.1772 241.876L17.1444 242.046L17.1372 242.083L17.137 242.084Z" fill="white"/>
<path d="M245.736 436.991L245.801 436.98L246.046 436.942L246.215 436.915L246.409 436.884L246.624 436.85L246.855 436.813L247.349 436.733L247.856 436.651L248.339 436.572L248.763 436.502C273.536 432.301 297.732 425.215 320.857 415.387C344.303 405.47 366.573 392.976 387.257 378.135C407.432 363.716 425.892 347.038 442.28 328.428C457.714 310.962 470.879 291.616 481.463 270.85L481.533 270.711L481.613 270.553L481.696 270.387L481.777 270.225L481.91 269.959L481.95 269.879L481.961 269.857V269.851L482.206 269.362L481.623 269.173L238.992 190.437L238.242 190.191L238.262 190.93L245.104 436.481L245.121 437.089L245.714 436.989H245.717L245.736 436.991Z" fill="#C1C1C1"/>
<path d="M244.546 437.789L244.53 437.18L244.514 436.573L237.79 191.043L237.77 190.304L237.751 189.567L238.5 189.81L239.25 190.053L481.873 268.681L482.456 268.87L483.04 269.06L482.795 269.548L482.568 270.002L482.551 270.036L482.548 270.043L482.536 270.065L482.497 270.145L482.362 270.413C482.336 270.465 482.309 270.52 482.281 270.575C482.253 270.631 482.225 270.687 482.198 270.742C482.17 270.797 482.143 270.85 482.118 270.901C482.093 270.951 482.069 270.998 482.048 271.04C479.549 276.003 476.855 280.935 473.973 285.826C471.075 290.744 467.988 295.618 464.716 300.437C461.429 305.28 457.957 310.066 454.308 314.782C450.642 319.519 446.799 324.184 442.785 328.766C438.809 333.305 434.669 337.759 430.373 342.117C426.064 346.489 421.602 350.764 416.995 354.93C412.376 359.107 407.615 363.174 402.721 367.12C397.818 371.074 392.785 374.904 387.633 378.602C382.468 382.309 377.189 385.879 371.807 389.303C366.422 392.73 360.938 396.01 355.367 399.135C349.796 402.26 344.141 405.229 338.416 408.035C332.695 410.839 326.907 413.479 321.064 415.947C315.138 418.451 309.161 420.776 303.147 422.919C297.144 425.058 291.107 427.014 285.051 428.784C279.01 430.55 272.953 432.129 266.893 433.519C260.853 434.904 254.813 436.101 248.788 437.106C248.658 437.128 248.511 437.152 248.356 437.178C248.2 437.203 248.035 437.23 247.867 437.257C247.699 437.284 247.528 437.312 247.361 437.339C247.194 437.366 247.03 437.392 246.876 437.417L246.437 437.487L246.066 437.547L245.823 437.585L245.761 437.595L245.757 437.596L245.753 437.596L245.736 437.599L245.728 437.6L245.72 437.601L245.714 437.602L245.139 437.694L244.546 437.789ZM238.734 190.82L245.694 436.388L245.769 436.376L245.777 436.374L245.781 436.374L245.785 436.373L246.029 436.335L246.398 436.275L246.836 436.205C246.989 436.181 247.153 436.154 247.319 436.127C247.486 436.1 247.656 436.073 247.823 436.046C247.99 436.019 248.154 435.992 248.309 435.966C248.464 435.941 248.609 435.917 248.739 435.895C273.133 431.817 297.296 424.699 320.58 414.878C343.982 405.007 366.257 392.506 386.783 377.794C407.206 363.157 425.695 346.476 441.699 328.222C457.47 310.234 470.682 290.886 480.885 270.657C480.906 270.615 480.93 270.568 480.955 270.518C480.98 270.468 481.007 270.414 481.035 270.36C481.062 270.305 481.09 270.249 481.118 270.194C481.146 270.139 481.173 270.084 481.199 270.032L481.332 269.766L481.346 269.739V269.738L481.386 269.657L481.386 269.657L238.734 190.82L238.734 190.82Z" fill="white"/>
<path d="M472.12 81.3606L472.592 81.1406L472.352 80.8346L471.881 81.0556L238.598 190.481L237.621 190.939L238.48 191.21L482.167 268.081L482.753 268.266L482.99 267.777V267.765L483.013 267.721L483.092 267.555L483.357 267.006L483.418 266.88L483.48 266.751L483.543 266.62L483.607 266.488L483.707 266.278L483.807 266.078L483.898 265.889L483.979 265.718C486.908 259.554 489.546 253.332 491.892 247.052C494.215 240.828 496.24 234.565 497.965 228.265C499.672 222.024 501.074 215.764 502.173 209.484C503.258 203.268 504.036 197.049 504.506 190.828C505.325 180.229 505.174 169.577 504.055 159.006C503.02 149.277 501.078 139.667 498.255 130.3C493.046 113.034 484.731 96.8625 473.718 82.5806L473.562 82.3806L473.384 82.1516L473.197 81.9116L473.014 81.6776L472.928 81.5686L472.849 81.4686L472.777 81.3766L472.715 81.2966L472.625 81.1816L472.6 81.1506L472.594 81.1416L472.12 81.3606Z" fill="#C1C1C1"/>
<path d="M483.1 268.939L482.514 268.754L481.929 268.569L238.224 191.589L237.365 191.318L236.507 191.047L237.484 190.589L238.461 190.132L471.641 80.7511L472.112 80.5303L472.583 80.3093L472.823 80.6143L472.824 80.6154L473.194 80.4427L473.131 81.0057L473.143 81.0217L473.304 81.2254L473.303 81.2258C473.317 81.2433 473.331 81.2615 473.346 81.2801C473.36 81.2986 473.375 81.3177 473.39 81.3372C473.406 81.3567 473.421 81.3766 473.437 81.3969C473.453 81.4172 473.469 81.4378 473.486 81.4587C473.557 81.5492 473.631 81.6434 473.703 81.7358C473.775 81.8282 473.845 81.9187 473.91 82.0017C473.974 82.0847 474.033 82.1602 474.081 82.2225C474.13 82.2848 474.168 82.334 474.191 82.3642C476.889 85.8623 479.429 89.4733 481.804 93.1918C484.203 96.9467 486.434 100.811 488.491 104.779C490.568 108.786 492.467 112.898 494.182 117.11C495.914 121.362 497.459 125.715 498.808 130.163C500.214 134.797 501.407 139.529 502.383 144.35C503.369 149.219 504.132 154.179 504.669 159.221C505.212 164.311 505.524 169.483 505.6 174.728C505.678 180.023 505.516 185.39 505.11 190.82C504.655 196.921 503.896 203.061 502.831 209.225C501.757 215.449 500.373 221.695 498.678 227.95C496.968 234.26 494.943 240.575 492.603 246.879C490.243 253.236 487.564 259.578 484.568 265.889C484.549 265.929 484.529 265.971 484.508 266.015C484.487 266.06 484.465 266.106 484.442 266.153C484.419 266.201 484.396 266.25 484.371 266.301C484.347 266.351 484.322 266.403 484.297 266.455L484.197 266.663L484.142 266.778C484.126 266.812 484.109 266.847 484.093 266.882C484.076 266.916 484.06 266.95 484.043 266.984C484.027 267.018 484.011 267.052 483.995 267.085C483.979 267.119 483.963 267.152 483.947 267.184L483.683 267.732L483.605 267.895L483.602 267.902L483.598 267.909L483.598 267.909L483.574 267.959L483.337 268.448L483.1 268.939ZM238.735 190.82L482.405 267.592L482.406 267.586L482.417 267.565L482.437 267.527L482.512 267.369L482.778 266.818C482.794 266.786 482.81 266.753 482.826 266.72C482.842 266.687 482.858 266.654 482.874 266.62C482.89 266.587 482.907 266.553 482.923 266.519C482.939 266.485 482.956 266.451 482.972 266.416L483.028 266.301L483.128 266.093C483.153 266.041 483.177 265.99 483.201 265.94C483.225 265.891 483.248 265.842 483.271 265.795C483.294 265.747 483.316 265.702 483.337 265.658C483.357 265.614 483.377 265.572 483.396 265.532C486.383 259.252 489.053 252.942 491.407 246.616C493.741 240.342 495.762 234.058 497.47 227.778C499.162 221.553 500.546 215.336 501.621 209.141C502.686 203.005 503.447 196.894 503.907 190.82C504.71 180.213 504.569 169.855 503.53 159.818C502.511 149.968 500.627 140.438 497.923 131.289C495.271 122.316 491.833 113.717 487.65 105.546C483.549 97.5339 478.734 89.9366 473.244 82.802C473.22 82.772 473.183 82.7231 473.135 82.661C473.087 82.5989 473.028 82.5237 472.964 82.4409C472.9 82.3582 472.83 82.268 472.758 82.1758C472.686 82.0838 472.613 81.9898 472.542 81.8997C472.526 81.8787 472.51 81.858 472.494 81.8377C472.478 81.8174 472.462 81.7974 472.447 81.7778C472.432 81.7583 472.417 81.7392 472.402 81.7205C472.387 81.7019 472.373 81.6837 472.359 81.666L472.359 81.6663L472.149 81.3977L472.107 81.3673L238.735 190.82L238.735 190.82Z" fill="white"/>
<path d="M471.77 80.1086L471.526 79.8086L471.52 79.7996L471.498 79.7726L471.446 79.7076C461.233 67.1746 449.179 56.2635 435.693 47.3466C422.181 38.419 407.564 31.289 392.211 26.1366C376.37 20.8169 359.982 17.2948 343.354 15.6366C325.799 13.8811 308.113 13.8627 290.554 15.5816L290.475 15.5896H290.442H290.428L290.341 15.8896L290.428 15.5896L290.028 15.6276L289.941 15.9276L238.135 190.821L237.919 191.552L238.733 191.164L471.302 80.3276L471.77 80.1086Z" fill="#C1C1C1"/>
<path d="M237.245 192.283L237.462 191.551L237.679 190.82L289.539 15.9584L289.626 15.6632L289.714 15.3681L290.115 15.3299L290.115 15.3299L290.115 15.3298L290.516 15.2917L290.918 15.2534L290.918 15.2536C295.365 14.8355 299.795 14.5215 304.201 14.3124C308.63 14.1022 313.037 13.9978 317.415 14C321.818 14.0023 326.194 14.1125 330.535 14.3316C334.903 14.5519 339.238 14.8826 343.533 15.3246C347.748 15.7584 351.927 16.2995 356.063 16.9475C360.226 17.5999 364.348 18.3608 368.421 19.2302C372.522 20.1056 376.576 21.0912 380.575 22.1868C384.603 23.2905 388.576 24.506 392.488 25.8334C396.362 27.1483 400.174 28.5721 403.917 30.1033C407.689 31.6463 411.392 33.2988 415.019 35.0591C418.675 36.8336 422.255 38.718 425.751 40.7108C429.276 42.72 432.717 44.8399 436.066 47.0686C439.438 49.3129 442.714 51.6651 445.888 54.1222C449.088 56.6006 452.185 59.1859 455.171 61.8751C458.183 64.5879 461.083 67.4066 463.864 70.3278C466.67 73.2751 469.354 76.3269 471.91 79.4795L471.963 79.5449L471.984 79.5708L471.989 79.5764L471.99 79.5781L471.994 79.5831L472.238 79.8852L472.482 80.1873L472.014 80.4107L471.545 80.6344L238.873 191.506L238.06 191.894L237.245 192.283ZM290.342 15.8824L238.592 190.82L471.059 80.03L471.057 80.0292L471.048 80.0164L471.046 80.0137L471.028 79.9921L470.975 79.9261C460.49 66.9652 448.111 55.9297 434.303 46.8379C420.958 38.0504 406.236 31.0502 390.522 25.8553C375.268 20.8129 359.017 17.4502 342.081 15.7966C325.559 14.1834 308.304 14.1885 290.57 15.8608L290.342 15.8824L290.342 15.8824Z" fill="white"/>
<path d="M187.039 365.645C213.916 368.338 241.78 365.211 268.879 357.123C296.404 348.838 322.318 335.929 345.513 318.951C368.445 302.188 387.962 282.015 402.56 259.742C416.813 237.995 426.145 214.599 429.414 190.821C432.559 167.945 429.759 147.071 422.324 128.973C415.213 111.796 403.841 96.7156 389.282 85.1555C375.321 73.9385 358.415 65.5665 339.441 60.4845C321.085 55.5675 300.659 53.6915 278.808 55.3065C257.555 56.9515 236.633 61.5327 216.638 68.9195C196.987 76.1394 178.301 85.7528 161.001 97.5425C143.832 109.18 128.228 122.973 114.57 138.584C100.875 154.164 89.6972 171.789 81.4419 190.82C73.1109 210.367 69.0329 229.686 68.9619 248.013C68.7507 266.491 73.0547 284.741 81.4999 301.178C90.6163 318.51 104.12 333.148 120.663 343.63C138.639 355.216 160.965 363.033 187.039 365.645Z" fill="#C1C1C1"/>
<path d="M242.79 225.498L217.505 225.011L232.721 175.068C232.848 174.663 232.941 174.249 232.999 173.83C233.049 173.462 233.052 173.09 233.007 172.722C232.96 172.369 232.859 172.025 232.707 171.704C232.541 171.354 232.328 171.028 232.075 170.736C231.821 170.433 231.529 170.164 231.207 169.936C230.898 169.719 230.562 169.546 230.207 169.42C229.829 169.287 229.438 169.195 229.04 169.147C228.586 169.091 228.128 169.068 227.671 169.077L210.855 169.277L192.918 224.545L171.628 224.135L190.3 169.525L175.6 169.704C175.105 169.709 174.61 169.743 174.119 169.804C173.603 169.867 173.092 169.964 172.589 170.095C172.072 170.228 171.566 170.401 171.076 170.614C170.576 170.83 170.098 171.093 169.647 171.4C169.192 171.711 168.747 172.024 168.338 172.346C167.935 172.656 167.55 172.99 167.186 173.346C166.843 173.679 166.533 174.043 166.258 174.435C165.994 174.812 165.779 175.222 165.621 175.655L148.292 223.678L128.066 223.289L146.147 175.381C146.587 174.199 147.129 173.057 147.766 171.969C148.393 170.907 149.116 169.905 149.927 168.976C150.801 167.98 151.751 167.052 152.766 166.201C153.933 165.221 155.148 164.302 156.409 163.447C157.668 162.573 158.994 161.802 160.376 161.14C161.608 160.553 162.887 160.074 164.201 159.708C165.453 159.362 166.729 159.112 168.018 158.959C169.329 158.805 170.646 158.718 171.966 158.701L239.346 157.45C240.82 157.423 242.251 157.45 243.62 157.561C244.94 157.659 246.249 157.871 247.533 158.194C248.735 158.496 249.893 158.953 250.977 159.556C252.052 160.159 253.021 160.936 253.843 161.856C254.644 162.734 255.375 163.675 256.027 164.67C256.614 165.567 257.081 166.538 257.413 167.558C257.737 168.581 257.895 169.65 257.882 170.724C257.857 171.96 257.666 173.188 257.314 174.374L242.79 225.498Z" fill="#C1C1C1"/>
<path d="M346.695 204.401C346.389 205.885 345.915 207.33 345.284 208.709C344.621 210.152 343.815 211.525 342.878 212.809C341.877 214.181 340.759 215.466 339.538 216.647C338.224 217.918 336.817 219.091 335.329 220.155C333.815 221.246 332.227 222.229 330.575 223.097C328.975 223.937 327.313 224.653 325.604 225.239C323.939 225.809 322.229 226.238 320.492 226.523C318.782 226.802 317.05 226.926 315.317 226.895L254.26 225.723L273.198 156.823L331.274 155.743C332.916 155.713 334.514 155.743 336.05 155.859C337.538 155.964 339.016 156.189 340.468 156.532C341.843 156.856 343.175 157.342 344.435 157.98C345.691 158.62 346.846 159.444 347.86 160.425C348.834 161.352 349.74 162.35 350.568 163.411C351.303 164.35 351.916 165.378 352.394 166.471C352.849 167.532 353.13 168.66 353.227 169.812C353.323 171.099 353.234 172.394 352.962 173.656L346.695 204.401ZM319.133 203.681L325.802 174.249C325.903 173.822 325.966 173.387 325.991 172.949C326.013 172.558 325.982 172.167 325.9 171.785C325.816 171.408 325.675 171.048 325.481 170.715C325.261 170.343 324.994 170.001 324.687 169.698C324.374 169.378 324.027 169.096 323.65 168.856C323.29 168.629 322.905 168.447 322.501 168.314C322.075 168.175 321.635 168.079 321.19 168.028C320.685 167.97 320.178 167.946 319.67 167.956L295.308 168.256L283.926 213.156L309.07 213.456C309.641 213.455 310.207 213.348 310.739 213.14C311.306 212.918 311.85 212.639 312.36 212.307C312.893 211.97 313.418 211.586 313.936 211.195C314.454 210.804 314.966 210.406 315.473 210.041C315.988 209.66 316.447 209.209 316.838 208.702C317.242 208.181 317.597 207.624 317.898 207.039C318.191 206.473 318.446 205.888 318.66 205.288C318.849 204.762 319.007 204.225 319.132 203.681H319.133Z" fill="#C1C1C1"/>
<path d="M153.842 423.331C191.518 428.719 231.077 425.393 269.813 414.47C309.391 403.199 346.588 384.822 379.586 360.235C412.149 336.013 439.337 306.743 458.957 274.516C477.923 243.362 489.386 210.145 491.908 176.816C494.298 145.238 488.386 116.891 476.28 92.7486C464.807 70.1208 447.903 50.6907 427.08 36.1976C407.348 22.2596 384.055 12.1726 358.427 6.38055C333.886 0.834552 306.958 -0.826448 278.467 1.87055C251.076 4.54497 224.156 10.817 198.404 20.5246C173.291 29.9537 149.375 42.3053 127.149 57.3246C105.007 72.2199 84.7698 89.7671 66.8879 109.576C48.6932 129.657 33.5664 152.318 21.9979 176.823C10.0979 202.391 3.50388 227.948 2.04588 252.516C0.510882 278.369 4.64588 303.286 14.3689 325.875C25.0397 350.528 42.0566 371.911 63.6849 387.844C87.4569 405.57 117.744 418.169 153.842 423.331Z" fill="#F06400"/>
<path d="M4.77089 227.97L4.7379 228.14C0.611755 248.763 0.214481 269.959 3.5649 290.723C6.98679 311.552 14.7139 331.439 26.2529 349.115C39.0242 368.428 55.9057 384.68 75.6899 396.709C97.3679 410.078 123.507 419.595 153.667 423.919C159.817 424.801 166.025 425.452 172.291 425.873C178.593 426.297 184.937 426.492 191.324 426.457C197.743 426.423 204.189 426.161 210.66 425.672C217.16 425.181 223.669 424.465 230.186 423.525L230.412 423.492L230.67 423.454L230.94 423.414L231.204 423.375L231.636 423.311L231.766 423.291L231.801 423.286H231.813L231.801 422.681L231.813 423.286L232.405 423.199L232.392 422.592L227.207 176.712L227.199 176.323L226.729 176.431L5.27089 227.394L4.8649 227.487L4.7909 227.867L5.1969 227.774L4.7909 227.867V227.874V227.896L4.77089 227.97Z" fill="#A44400"/>
<path d="M153.494 424.507C146 423.43 138.709 422.026 131.634 420.305C124.627 418.6 117.837 416.586 111.278 414.271C104.784 411.979 98.5209 409.394 92.4985 406.527C86.5402 403.69 80.8214 400.578 75.3522 397.201C72.7317 395.583 70.1673 393.902 67.6631 392.162C65.1726 390.431 62.742 388.642 60.375 386.799C58.0213 384.966 55.7308 383.079 53.5072 381.142C51.2963 379.217 49.1517 377.242 47.077 375.222C45.0385 373.237 43.0599 371.201 41.1441 369.118C39.2393 367.047 37.3968 364.93 35.6192 362.772C33.8519 360.625 32.1488 358.438 30.5127 356.214C28.8861 354.003 27.3256 351.755 25.8338 349.475C24.3588 347.221 22.9456 344.927 21.5958 342.598C20.254 340.282 18.9749 337.932 17.7605 335.552C16.553 333.186 15.4093 330.79 14.3309 328.369C13.2587 325.962 12.2511 323.53 11.3095 321.077C10.3722 318.636 9.497 316.165 8.68457 313.67C7.87681 311.189 7.13112 308.684 6.44818 306.16C5.76913 303.65 5.1521 301.12 4.59768 298.576C4.04643 296.046 3.55709 293.501 3.13027 290.946C2.7025 288.385 2.33597 285.804 2.0305 283.208C1.72669 280.626 1.48329 278.029 1.30002 275.421C1.11777 272.828 0.995035 270.224 0.931604 267.614C0.868517 265.018 0.864107 262.416 0.918207 259.812C0.972589 257.194 1.08634 254.564 1.25849 251.926C1.42974 249.302 1.65876 246.67 1.94463 244.035C2.22902 241.414 2.5697 238.789 2.96575 236.165C3.3598 233.555 3.80872 230.945 4.31165 228.34L4.31137 228.34L4.37124 228.033L4.37954 227.99L4.38127 227.981L4.3833 227.971L4.38487 227.962L4.3868 227.953L4.45948 227.58L4.53343 227.201L4.93884 227.108L5.34429 227.014L226.72 176.042L227.19 175.933L227.661 175.825L227.67 176.213L227.679 176.602L232.983 422.501L232.996 423.108L233.009 423.717L232.417 423.804L232.274 423.825L232.239 423.971L231.743 423.904L231.65 423.918L231.215 423.983C231.13 423.995 231.041 424.008 230.951 424.022C230.86 424.035 230.769 424.048 230.68 424.061C230.59 424.074 230.503 424.087 230.421 424.099C230.34 424.111 230.263 424.122 230.195 424.132C223.549 425.089 216.93 425.81 210.353 426.298C203.81 426.783 197.313 427.037 190.878 427.061C184.479 427.084 178.144 426.88 171.888 426.451C165.671 426.024 159.536 425.375 153.494 424.507ZM5.13682 228.084C0.916231 249.985 0.658144 271.294 4.18669 291.383C7.87887 312.404 15.724 332.127 27.5225 349.708C39.8812 368.125 56.5527 384.155 77.203 396.731C98.7646 409.862 124.517 419.139 153.841 423.332C159.856 424.193 165.963 424.834 172.151 425.255C178.378 425.678 184.683 425.878 191.052 425.851C197.457 425.824 203.922 425.569 210.433 425.083C216.978 424.594 223.565 423.873 230.178 422.919C230.246 422.909 230.322 422.898 230.403 422.886C230.485 422.874 230.571 422.861 230.66 422.848C230.749 422.835 230.84 422.822 230.93 422.808C231.02 422.795 231.109 422.782 231.193 422.769L231.625 422.705L231.752 422.686L231.792 422.68L231.799 422.679L231.803 422.678V422.678L231.803 422.678L226.734 176.821L226.734 176.821L5.19705 227.773H5.19702L5.19698 227.774H5.19695H5.19693L5.19673 227.775L5.19625 227.777L5.19529 227.782L5.19094 227.805L5.17712 227.876L5.14431 228.046L5.13711 228.083L5.13682 228.084Z" fill="white"/>
<path d="M233.737 422.991L233.802 422.98L234.046 422.942L234.215 422.915L234.409 422.884L234.624 422.85L234.855 422.813L235.349 422.733L235.856 422.651L236.339 422.572L236.763 422.502C261.536 418.302 285.732 411.215 308.857 401.387C332.303 391.47 354.573 378.976 375.257 364.135C395.432 349.716 413.892 333.039 430.28 314.428C445.714 296.962 458.879 277.616 469.463 256.85L469.533 256.711L469.613 256.553L469.696 256.387L469.777 256.225L469.91 255.959L469.95 255.879L469.961 255.857V255.851L470.206 255.362L469.623 255.173L226.993 176.437L226.243 176.191L226.263 176.93L233.105 422.481L233.122 423.089L233.715 422.989H233.718L233.737 422.991Z" fill="#E66E1A"/>
<path d="M232.547 423.789L232.531 423.18L232.515 422.573L225.791 177.043L225.771 176.304L225.751 175.567L226.501 175.81L227.251 176.053L469.874 254.682L470.457 254.87L471.04 255.06L470.796 255.548L470.569 256.002L470.552 256.036L470.549 256.043L470.537 256.065L470.498 256.145L470.363 256.413C470.337 256.465 470.31 256.52 470.282 256.575C470.254 256.631 470.226 256.687 470.199 256.742C470.171 256.797 470.144 256.85 470.119 256.901C470.094 256.951 470.07 256.998 470.049 257.04C467.55 262.003 464.856 266.935 461.974 271.826C459.076 276.744 455.989 281.618 452.717 286.438C449.43 291.28 445.958 296.066 442.308 300.782C438.643 305.519 434.8 310.184 430.786 314.766C426.81 319.305 422.67 323.758 418.374 328.117C414.065 332.489 409.603 336.764 404.995 340.93C400.377 345.107 395.616 349.174 390.722 353.12C385.819 357.074 380.786 360.904 375.634 364.602C370.469 368.309 365.19 371.879 359.808 375.303C354.423 378.73 348.939 382.01 343.368 385.135C337.797 388.26 332.142 391.229 326.417 394.035C320.696 396.839 314.908 399.479 309.065 401.947C303.139 404.451 297.162 406.776 291.148 408.919C285.145 411.058 279.108 413.014 273.052 414.784C267.011 416.55 260.954 418.129 254.894 419.519C248.854 420.904 242.814 422.101 236.789 423.106C236.658 423.128 236.512 423.152 236.356 423.178C236.201 423.203 236.036 423.23 235.868 423.257C235.7 423.284 235.529 423.312 235.362 423.339C235.195 423.366 235.031 423.392 234.877 423.417L234.437 423.487L234.067 423.547L233.824 423.585L233.762 423.595L233.758 423.596L233.754 423.597L233.737 423.599L233.729 423.6L233.721 423.601L233.715 423.602L233.14 423.694L232.547 423.789ZM226.735 176.82L233.695 422.388L233.77 422.376L233.778 422.374L233.782 422.374L233.786 422.373L234.03 422.335L234.399 422.275L234.837 422.205C234.99 422.181 235.153 422.154 235.32 422.127C235.487 422.1 235.657 422.073 235.824 422.046C235.991 422.019 236.155 421.992 236.31 421.966C236.465 421.941 236.61 421.917 236.74 421.895C261.134 417.817 285.297 410.699 308.581 400.878C331.983 391.007 354.258 378.506 374.784 363.794C395.207 349.157 413.696 332.476 429.7 314.222C445.471 296.234 458.682 276.886 468.886 256.657C468.907 256.615 468.931 256.568 468.956 256.518C468.981 256.468 469.008 256.414 469.035 256.36C469.063 256.305 469.091 256.249 469.119 256.194C469.146 256.139 469.174 256.084 469.2 256.032L469.333 255.766L469.347 255.739L469.347 255.738L469.387 255.657L469.387 255.657L226.735 176.82L226.735 176.82Z" fill="white"/>
<path d="M460.12 67.3606L460.592 67.1406L460.352 66.8346L459.881 67.0556L226.598 176.481L225.621 176.939L226.48 177.21L470.167 254.081L470.753 254.266L470.99 253.777V253.765L471.013 253.721L471.092 253.555L471.357 253.006L471.418 252.88L471.48 252.751L471.543 252.62L471.607 252.488L471.707 252.278L471.807 252.078L471.898 251.889L471.979 251.719C474.908 245.555 477.546 239.333 479.892 233.053C482.215 226.829 484.24 220.566 485.965 214.266C487.672 208.025 489.074 201.765 490.173 195.485C491.258 189.269 492.036 183.05 492.506 176.829C493.325 166.23 493.174 155.578 492.055 145.007C491.02 135.278 489.078 125.668 486.255 116.301C481.046 99.0342 472.731 82.8628 461.718 68.5806L461.562 68.3806L461.384 68.1516L461.197 67.9116L461.014 67.6776L460.928 67.5686L460.849 67.4686L460.777 67.3766L460.715 67.2966L460.625 67.1816L460.6 67.1506L460.594 67.1416L460.12 67.3606Z" fill="#FD9042"/>
<path d="M471.1 254.939L470.514 254.754L469.929 254.569L226.224 177.589L225.365 177.318L224.507 177.047L225.484 176.589L226.461 176.132L459.641 66.7511L460.112 66.5303L460.583 66.3093L460.823 66.6143L460.824 66.6154L461.194 66.4427L461.131 67.0057L461.143 67.0217L461.304 67.2254L461.303 67.2258C461.317 67.2433 461.331 67.2615 461.346 67.2801C461.36 67.2986 461.375 67.3177 461.39 67.3372C461.406 67.3567 461.421 67.3766 461.437 67.3969C461.453 67.4172 461.469 67.4378 461.486 67.4587C461.557 67.5492 461.631 67.6434 461.703 67.7358C461.775 67.8282 461.845 67.9187 461.91 68.0017C461.974 68.0847 462.033 68.1602 462.081 68.2225C462.13 68.2848 462.168 68.334 462.191 68.3642C464.889 71.8623 467.429 75.4733 469.804 79.1918C472.203 82.9467 474.434 86.811 476.491 90.779C478.568 94.7857 480.467 98.898 482.182 103.11C483.915 107.362 485.459 111.715 486.808 116.163C488.214 120.797 489.407 125.529 490.383 130.35C491.369 135.219 492.132 140.179 492.669 145.221C493.212 150.311 493.524 155.483 493.6 160.728C493.678 166.023 493.516 171.39 493.11 176.82C492.655 182.921 491.896 189.061 490.832 195.225C489.757 201.449 488.373 207.695 486.678 213.95C484.968 220.26 482.943 226.575 480.603 232.879C478.243 239.236 475.564 245.578 472.568 251.889C472.549 251.929 472.529 251.971 472.508 252.015C472.487 252.06 472.465 252.106 472.442 252.153C472.419 252.201 472.396 252.25 472.371 252.301C472.347 252.351 472.322 252.403 472.297 252.455L472.197 252.663L472.142 252.778C472.126 252.812 472.109 252.847 472.093 252.882C472.076 252.916 472.06 252.95 472.043 252.984C472.027 253.018 472.011 253.052 471.995 253.085C471.979 253.119 471.963 253.151 471.947 253.184L471.683 253.732L471.605 253.895L471.602 253.902L471.598 253.909L471.598 253.909L471.574 253.959L471.337 254.448L471.1 254.939ZM226.735 176.82L470.405 253.592L470.406 253.586L470.417 253.565L470.437 253.527L470.512 253.369L470.778 252.818C470.794 252.786 470.81 252.753 470.826 252.72C470.842 252.687 470.858 252.654 470.874 252.62C470.89 252.587 470.907 252.553 470.923 252.519C470.939 252.485 470.956 252.451 470.972 252.416L471.028 252.301L471.128 252.093C471.153 252.041 471.177 251.99 471.201 251.94C471.225 251.891 471.248 251.842 471.271 251.795C471.294 251.747 471.316 251.702 471.337 251.658C471.357 251.614 471.377 251.572 471.396 251.532C474.383 245.252 477.053 238.942 479.407 232.616C481.741 226.342 483.762 220.058 485.47 213.778C487.162 207.553 488.546 201.336 489.621 195.141C490.686 189.005 491.447 182.894 491.907 176.82C492.71 166.213 492.569 155.855 491.53 145.818C490.511 135.968 488.627 126.438 485.923 117.289C483.271 108.316 479.833 99.7168 475.65 91.5459C471.549 83.5339 466.734 75.9366 461.244 68.802C461.22 68.772 461.183 68.7231 461.135 68.661C461.087 68.5989 461.028 68.5237 460.964 68.4409C460.9 68.3582 460.83 68.268 460.758 68.1758C460.686 68.0838 460.613 67.9898 460.542 67.8997C460.526 67.8787 460.51 67.858 460.494 67.8377C460.478 67.8174 460.462 67.7974 460.447 67.7778C460.432 67.7583 460.417 67.7392 460.402 67.7205C460.387 67.7019 460.373 67.6837 460.359 67.666L460.359 67.6663L460.149 67.3977L460.107 67.3673L226.735 176.82L226.735 176.82Z" fill="white"/>
<path d="M459.77 66.1086L459.526 65.8086L459.52 65.7996L459.498 65.7726L459.446 65.7076C449.233 53.1746 437.178 42.2635 423.693 33.3466C410.181 24.419 395.564 17.289 380.211 12.1366C364.37 6.81693 347.982 3.29482 331.354 1.63659C313.799 -0.118917 296.113 -0.13734 278.554 1.58159L278.475 1.58959H278.442H278.428L278.341 1.88959L278.428 1.58959L278.028 1.62759L277.941 1.92759L226.135 176.821L225.919 177.552L226.733 177.164L459.302 66.3276L459.77 66.1086Z" fill="#BD6C32"/>
<path d="M225.245 178.283L225.462 177.551L225.679 176.82L277.539 1.95838L277.626 1.66318L277.714 1.36814L278.115 1.32991L278.115 1.3299L278.115 1.32975L278.516 1.29166L278.918 1.25337L278.918 1.25364C283.365 0.835522 287.795 0.521544 292.201 0.312396C296.63 0.10215 301.037 -0.00224645 305.415 3.66471e-05C309.818 0.00233309 314.194 0.112517 318.535 0.331564C322.903 0.551941 327.238 0.882584 331.533 1.32461C335.748 1.75838 339.927 2.29945 344.063 2.9475C348.226 3.59986 352.348 4.36083 356.421 5.23019C360.522 6.10562 364.576 7.09122 368.574 8.18682C372.603 9.29046 376.576 10.506 380.488 11.8334C384.362 13.1483 388.174 14.5721 391.917 16.1033C395.689 17.6463 399.392 19.2988 403.019 21.0591C406.675 22.8336 410.254 24.718 413.751 26.7108C417.276 28.7201 420.716 30.8399 424.066 33.0686C427.438 35.3129 430.714 37.6651 433.888 40.1222C437.088 42.6006 440.185 45.1859 443.171 47.8751C446.183 50.5879 449.083 53.4066 451.864 56.3278C454.67 59.2751 457.354 62.3269 459.91 65.4795L459.963 65.5449L459.984 65.5708L459.989 65.5764L459.99 65.5781L459.994 65.5831L460.238 65.8852L460.482 66.1873L460.014 66.4107L459.545 66.6344L226.873 177.506L226.06 177.894L225.245 178.283ZM278.341 1.8824L226.591 176.82L459.059 66.03L459.057 66.0292L459.048 66.0164L459.046 66.0137L459.028 65.9921L458.975 65.9261C448.49 52.9652 436.111 41.9297 422.303 32.8379C408.958 24.0505 394.236 17.0502 378.522 11.8553C363.268 6.81287 347.017 3.45022 330.081 1.7966C313.559 0.183398 296.304 0.188479 278.569 1.86082L278.342 1.88238L278.341 1.8824Z" fill="white"/>
<path d="M175.039 351.645C201.916 354.338 229.78 351.211 256.879 343.123C284.404 334.838 310.319 321.929 333.514 304.951C356.446 288.188 375.963 268.015 390.561 245.742C404.814 223.995 414.146 200.599 417.415 176.821C420.56 153.945 417.76 133.071 410.325 114.973C403.214 97.796 391.842 82.7156 377.283 71.1555C363.322 59.9385 346.416 51.5665 327.442 46.4845C309.085 41.5675 288.659 39.6915 266.808 41.3065C245.555 42.9515 224.633 47.5327 204.638 54.9195C184.987 62.1394 166.301 71.7528 149.001 83.5425C131.832 95.1803 116.228 108.973 102.57 124.584C88.8746 140.164 77.6972 157.789 69.4419 176.82C61.1109 196.367 57.0329 215.686 56.9619 234.013C56.7506 252.491 61.0546 270.741 69.4999 287.178C78.6162 304.51 92.12 319.148 108.663 329.63C126.639 341.216 148.965 349.033 175.039 351.645Z" fill="white"/>
<path d="M230.79 211.498L205.505 211.011L220.721 161.068C220.848 160.663 220.941 160.249 220.999 159.83C221.049 159.462 221.052 159.09 221.007 158.722C220.96 158.369 220.859 158.025 220.707 157.704C220.541 157.354 220.328 157.028 220.075 156.736C219.821 156.433 219.529 156.164 219.207 155.936C218.898 155.719 218.562 155.546 218.207 155.42C217.829 155.287 217.438 155.195 217.04 155.147C216.586 155.091 216.128 155.068 215.671 155.077L198.855 155.277L180.918 210.545L159.628 210.135L178.3 155.525L163.6 155.704C163.105 155.709 162.61 155.743 162.119 155.804C161.603 155.867 161.092 155.964 160.589 156.095C160.072 156.228 159.566 156.401 159.076 156.614C158.576 156.83 158.098 157.093 157.647 157.4C157.192 157.711 156.747 158.024 156.338 158.346C155.935 158.656 155.55 158.99 155.186 159.346C154.843 159.679 154.533 160.043 154.258 160.435C153.994 160.812 153.779 161.222 153.621 161.655L136.292 209.678L116.066 209.289L134.147 161.381C134.587 160.199 135.129 159.057 135.766 157.969C136.393 156.907 137.116 155.905 137.927 154.976C138.801 153.98 139.75 153.052 140.766 152.201C141.933 151.221 143.148 150.302 144.409 149.447C145.668 148.573 146.994 147.802 148.376 147.14C149.608 146.553 150.887 146.074 152.201 145.708C153.453 145.362 154.729 145.112 156.018 144.959C157.329 144.805 158.646 144.718 159.966 144.701L227.346 143.45C228.82 143.423 230.251 143.45 231.62 143.561C232.94 143.659 234.249 143.871 235.533 144.194C236.735 144.496 237.893 144.953 238.977 145.556C240.052 146.159 241.021 146.936 241.843 147.856C242.644 148.734 243.375 149.675 244.027 150.67C244.614 151.567 245.08 152.538 245.413 153.558C245.737 154.581 245.895 155.65 245.882 156.724C245.857 157.96 245.666 159.188 245.314 160.374L230.79 211.498Z" fill="#F56600"/>
<path d="M334.695 190.401C334.389 191.885 333.915 193.33 333.284 194.709C332.621 196.152 331.814 197.525 330.878 198.809C329.877 200.181 328.759 201.466 327.538 202.647C326.223 203.918 324.817 205.091 323.329 206.155C321.815 207.246 320.227 208.229 318.575 209.097C316.975 209.937 315.313 210.653 313.604 211.239C311.939 211.809 310.229 212.238 308.492 212.523C306.782 212.802 305.05 212.926 303.317 212.895L242.26 211.723L261.198 142.823L319.274 141.743C320.916 141.713 322.514 141.743 324.05 141.859C325.538 141.964 327.016 142.189 328.468 142.532C329.843 142.856 331.174 143.342 332.435 143.98C333.691 144.62 334.846 145.444 335.86 146.425C336.834 147.352 337.74 148.35 338.568 149.411C339.303 150.35 339.916 151.378 340.394 152.471C340.849 153.532 341.13 154.66 341.227 155.812C341.323 157.099 341.234 158.394 340.962 159.656L334.695 190.401ZM307.133 189.681L313.802 160.249C313.903 159.822 313.966 159.387 313.991 158.949C314.013 158.558 313.982 158.167 313.9 157.785C313.816 157.408 313.675 157.048 313.481 156.715C313.261 156.343 312.994 156.001 312.687 155.698C312.374 155.378 312.027 155.096 311.65 154.856C311.29 154.629 310.904 154.447 310.501 154.314C310.075 154.175 309.635 154.079 309.19 154.028C308.685 153.97 308.178 153.946 307.67 153.956L283.308 154.256L271.926 199.156L297.07 199.456C297.641 199.455 298.207 199.348 298.739 199.14C299.306 198.918 299.85 198.639 300.36 198.307C300.893 197.97 301.418 197.586 301.936 197.195C302.454 196.804 302.966 196.406 303.473 196.041C303.988 195.66 304.447 195.209 304.838 194.702C305.242 194.181 305.597 193.624 305.898 193.039C306.191 192.473 306.446 191.888 306.66 191.288C306.849 190.762 307.007 190.226 307.132 189.682L307.133 189.681Z" fill="#F56600"/>
</svg>
